<?xml version="1.0" encoding="utf-8"?>
<!-- Generator: Adobe Illustrator 19.1.0, SVG Export Plug-In . SVG Version: 6.00 Build 0)  -->
<svg version="1.1" id="Layer_1" xmlns="http://www.w3.org/2000/svg" xmlns:xlink="http://www.w3.org/1999/xlink" x="0px" y="0px"
	 viewBox="2 -3 20 20" style="enable-background:new 2 -3 20 20;" xml:space="preserve">
<style type="text/css">
	.st0{fill:none;stroke:#109CF1;stroke-width:1.4;}
</style>
<path class="st0" d="M5.5,7.1C5.3,7.1,5.2,7,5.2,6.8V0.5c0-0.2,0.1-0.3,0.3-0.3h4.7c0.2,0,0.3,0.1,0.3,0.3v6.3
	c0,0.2-0.1,0.3-0.3,0.3H5.5z M5.5,13.8c-0.2,0-0.3-0.1-0.3-0.3v-3c0-0.2,0.1-0.3,0.3-0.3h4.7c0.2,0,0.3,0.1,0.3,0.3v3
	c0,0.2-0.1,0.3-0.3,0.3H5.5z M13.8,13.8c-0.2,0-0.3-0.1-0.3-0.3V7.2c0-0.2,0.1-0.3,0.3-0.3h4.7c0.2,0,0.3,0.1,0.3,0.3v6.3
	c0,0.2-0.1,0.3-0.3,0.3H13.8z M13.5,0.5c0-0.2,0.1-0.3,0.3-0.3h4.7c0.2,0,0.3,0.1,0.3,0.3v3c0,0.2-0.1,0.3-0.3,0.3h-4.7
	c-0.2,0-0.3-0.1-0.3-0.3V0.5z"/>
</svg>
